<?xml version="1.0" encoding="iso-8859-1"?>
<!-- Generator: Adobe Illustrator 19.0.0, SVG Export Plug-In . SVG Version: 6.00 Build 0)  -->
<svg version="1.1" id="Layer_1" xmlns="http://www.w3.org/2000/svg" xmlns:xlink="http://www.w3.org/1999/xlink" x="0px" y="0px"
	 viewBox="0 0 512 512" style="enable-background:new 0 0 512 512;" xml:space="preserve">
<g>
	<g>
		<path d="M510.483,205.243c-1.647-2.422-4.379-3.461-7.31-3.461H346.356c-21.026-28.69-53.698-44.138-90.356-44.138
			s-69.33,15.448-90.354,44.138H8.827c-2.931,0-5.664,1.039-7.31,3.461c-1.638,2.422-1.974,5.299-0.888,8.015l17.715,44.185
			c0.004,0.004,0.004-0.041,0.009-0.037L36,301.502c0.004,0.007,0.004,0,0.009,0.004l17.586,44.382
			c1.345,3.353,4.586,5.963,8.198,5.963H173.31c20.894,19.862,50.228,35.31,82.69,35.31c32.461,0,61.795-15.448,82.69-35.31h111.517
			c3.612,0,6.854-2.616,8.198-5.97l17.589-44.179c0.002-0.004,0.004-0.117,0.006-0.121l17.649-44.227
			c0.002-0.004,0.004-0.011,0.006-0.017l17.715-44.289C512.457,210.334,512.121,207.666,510.483,205.243z M32.455,245.92
			l-10.593-26.483h132.384c-4.332,6.621-7.675,15.448-9.886,26.483H32.455z M50.112,290.058l-10.595-26.483h102.097
			c-0.222,2.207-0.373,5.853-0.373,8.828c0,6.002,0.47,11.034,1.362,17.655H50.112z M67.767,334.196l-10.593-26.483h89.651
			c3.054,8.828,7.3,17.655,12.552,26.483H67.767z M256,368.67c-53.543,0-97.104-43.56-97.104-97.104s43.56-97.104,97.104-97.104
			s97.104,43.56,97.104,97.104S309.543,368.67,256,368.67z M444.233,334.196h-91.608c5.25-8.828,9.496-17.655,12.552-26.483h89.651
			L444.233,334.196z M461.888,290.058h-92.489c0.892-6.621,1.36-11.653,1.36-17.655c0-2.974-0.151-6.621-0.373-8.828h102.097
			L461.888,290.058z M479.545,245.92H367.64c-2.211-11.034-5.554-19.862-9.886-26.483h132.384L479.545,245.92z"/>
	</g>
</g>
<g>
	<g>
		<path d="M331.56,247.023c-1.043-3.198-3.802-5.526-7.129-6.009l-41.81-6.086l-18.707-37.888c-2.965-6.035-12.862-6.035-15.827,0
			l-18.707,37.888l-41.81,6.086c-3.328,0.483-6.086,2.81-7.129,6.009c-1.034,3.19-0.172,6.698,2.233,9.043l30.259,29.5
			l-7.138,41.647c-0.569,3.31,0.793,6.655,3.509,8.629c2.733,1.983,6.336,2.241,9.302,0.672L256,316.851l37.397,19.664
			c1.293,0.681,2.707,1.017,4.112,1.017c1.828,0,3.646-0.569,5.19-1.69c2.715-1.974,4.077-5.319,3.509-8.629l-7.138-41.647
			l30.259-29.5C331.733,253.722,332.595,250.213,331.56,247.023z M283.422,276.161c-2.078,2.026-3.026,4.948-2.535,7.81
			l4.897,28.595l-25.672-13.5c-1.293-0.681-2.698-1.017-4.112-1.017c-1.414,0-2.819,0.336-4.112,1.017l-25.672,13.5l4.897-28.595
			c0.491-2.862-0.457-5.785-2.535-7.81l-20.776-20.25l28.707-4.181c2.879-0.414,5.362-2.224,6.647-4.828L256,220.885l12.845,26.017
			c1.284,2.604,3.767,4.414,6.647,4.828l28.707,4.181L283.422,276.161z"/>
	</g>
</g>
<g>
	<g>
		<path d="M174.828,128.239c-1.043-3.19-3.802-5.517-7.129-6l-12.81-1.862l-5.733-11.612c-2.965-6.035-12.862-6.035-15.827,0
			l-5.733,11.612l-12.81,1.862c-3.328,0.483-6.086,2.81-7.129,6c-1.035,3.198-0.173,6.707,2.233,9.052l9.276,9.043l-2.19,12.759
			c-0.569,3.31,0.793,6.655,3.509,8.629c2.733,1.991,6.336,2.241,9.302,0.672l11.457-6.026l11.457,6.026
			c1.293,0.681,2.707,1.017,4.112,1.017c1.828,0,3.646-0.569,5.19-1.69c2.715-1.974,4.077-5.319,3.509-8.629l-2.19-12.759
			l9.276-9.043C175,134.946,175.862,131.437,174.828,128.239z M145.095,144.446c-1.216-0.586-2.534-0.879-3.854-0.879
			c-1.319,0-2.638,0.293-3.853,0.879c0.371-2.672-0.5-5.362-2.371-7.31c2.655-0.474,4.948-2.146,6.224-4.526
			c1.276,2.379,3.569,4.052,6.224,4.526C145.595,139.083,144.724,141.773,145.095,144.446z"/>
	</g>
</g>
<g>
	<g>
		<path d="M289.586,92.928c-1.043-3.19-3.802-5.517-7.129-6l-12.81-1.862l-5.733-11.612c-2.965-6.035-12.862-6.035-15.827,0
			l-5.733,11.612l-12.81,1.862c-3.328,0.483-6.086,2.81-7.129,6c-1.035,3.198-0.173,6.707,2.233,9.052l9.276,9.043l-2.19,12.759
			c-0.569,3.31,0.793,6.655,3.509,8.629c2.733,1.992,6.327,2.25,9.302,0.672L256,127.058l11.457,6.026
			c1.293,0.681,2.707,1.017,4.112,1.017c1.828,0,3.646-0.569,5.19-1.69c2.715-1.974,4.078-5.319,3.509-8.629l-2.19-12.759
			l9.276-9.043C289.759,99.635,290.621,96.127,289.586,92.928z M259.853,109.135c-1.216-0.586-2.534-0.879-3.853-0.879
			c-1.319,0-2.638,0.293-3.853,0.879c0.371-2.672-0.5-5.362-2.371-7.31c2.655-0.474,4.948-2.146,6.224-4.526
			c1.276,2.379,3.569,4.052,6.224,4.526C260.354,103.773,259.483,106.463,259.853,109.135z"/>
	</g>
</g>
<g>
	<g>
		<path d="M395.517,128.239c-1.043-3.19-3.802-5.517-7.129-6l-12.81-1.862l-5.733-11.612c-2.965-6.035-12.862-6.035-15.827,0
			l-5.733,11.612l-12.81,1.862c-3.328,0.483-6.086,2.81-7.129,6c-1.035,3.198-0.173,6.707,2.233,9.052l9.276,9.043l-2.19,12.759
			c-0.569,3.31,0.793,6.655,3.509,8.629c2.724,1.991,6.336,2.241,9.302,0.672l11.457-6.026l11.457,6.026
			c1.293,0.681,2.707,1.017,4.112,1.017c1.828,0,3.646-0.569,5.19-1.69c2.715-1.974,4.077-5.319,3.509-8.629l-2.19-12.759
			l9.276-9.043C395.69,134.946,396.552,131.437,395.517,128.239z M365.785,144.446c-1.216-0.586-2.534-0.879-3.853-0.879
			c-1.319,0-2.638,0.293-3.853,0.879c0.371-2.672-0.5-5.362-2.371-7.31c2.655-0.474,4.948-2.146,6.224-4.526
			c1.276,2.379,3.569,4.052,6.224,4.526C366.285,139.083,365.414,141.773,365.785,144.446z"/>
	</g>
</g>
<g>
	<g>
		<path d="M201.31,401.894c-1.043-3.19-3.802-5.517-7.129-6l-12.81-1.862l-5.733-11.612c-2.965-6.035-12.862-6.035-15.827,0
			l-5.733,11.612l-12.81,1.862c-3.328,0.483-6.086,2.81-7.129,6c-1.035,3.198-0.173,6.707,2.233,9.052l9.276,9.043l-2.19,12.759
			c-0.569,3.31,0.793,6.655,3.509,8.629c2.733,1.983,6.327,2.25,9.302,0.672l11.457-6.026l11.457,6.026
			c1.293,0.681,2.707,1.017,4.112,1.017c1.828,0,3.646-0.569,5.19-1.69c2.715-1.974,4.077-5.319,3.509-8.629l-2.19-12.759
			l9.276-9.043C201.483,408.601,202.345,405.093,201.31,401.894z M171.577,418.101c-1.216-0.586-2.534-0.879-3.853-0.879
			c-1.319,0-2.638,0.293-3.854,0.879c0.371-2.672-0.5-5.362-2.371-7.31c2.655-0.474,4.948-2.146,6.224-4.526
			c1.276,2.379,3.569,4.052,6.224,4.526C172.078,412.739,171.207,415.429,171.577,418.101z"/>
	</g>
</g>
<g>
	<g>
		<path d="M369.035,401.894c-1.043-3.19-3.802-5.517-7.129-6l-12.81-1.862l-5.733-11.612c-2.965-6.035-12.862-6.035-15.827,0
			l-5.733,11.612l-12.81,1.862c-3.328,0.483-6.086,2.81-7.129,6c-1.035,3.198-0.173,6.707,2.233,9.052l9.276,9.043l-2.19,12.759
			c-0.569,3.31,0.793,6.655,3.509,8.629c2.741,1.983,6.327,2.25,9.302,0.672l11.457-6.026l11.457,6.026
			c1.293,0.681,2.707,1.017,4.112,1.017c1.828,0,3.646-0.569,5.19-1.69c2.715-1.974,4.077-5.319,3.508-8.629l-2.19-12.759
			l9.276-9.043C369.207,408.601,370.069,405.093,369.035,401.894z M339.302,418.101c-1.216-0.586-2.534-0.879-3.853-0.879
			c-1.319,0-2.638,0.293-3.853,0.879c0.371-2.672-0.5-5.362-2.371-7.31c2.655-0.474,4.948-2.146,6.224-4.526
			c1.276,2.379,3.569,4.052,6.224,4.526C339.802,412.739,338.931,415.429,339.302,418.101z"/>
	</g>
</g>
<g>
</g>
<g>
</g>
<g>
</g>
<g>
</g>
<g>
</g>
<g>
</g>
<g>
</g>
<g>
</g>
<g>
</g>
<g>
</g>
<g>
</g>
<g>
</g>
<g>
</g>
<g>
</g>
<g>
</g>
</svg>
