<?xml version="1.0" encoding="iso-8859-1"?>
<!-- Generator: Adobe Illustrator 19.0.0, SVG Export Plug-In . SVG Version: 6.00 Build 0)  -->
<svg version="1.1" id="Layer_1" xmlns="http://www.w3.org/2000/svg" xmlns:xlink="http://www.w3.org/1999/xlink" x="0px" y="0px"
	 viewBox="0 0 512 512" style="enable-background:new 0 0 512 512;" xml:space="preserve">
<g>
	<g>
		<path d="M382.26,139.126L263.216,2.771c-3.246-3.695-9.454-3.695-12.7,0L130.739,139.126c-1.357,1.556-2.572,3.549-2.572,5.614
			v247.143v51.133v59.655c0,4.706,4.877,9.329,9.587,9.329h238.621c4.71,0,7.457-4.623,7.457-9.329v-59.655v-51.133V144.74
			C383.833,142.675,383.616,140.682,382.26,139.126z M366.788,494.956H145.212v-42.611h221.576V494.956z M366.788,435.301H145.212
			v-34.089h221.576V435.301z M366.788,384.167H145.212V147.944L256,21.326l110.788,126.617V384.167z"/>
	</g>
</g>
<g>
	<g>
		<path d="M295.923,225.317c-1.007-3.083-3.67-5.335-6.883-5.801l-17.968-2.609l-8.031-16.283c-1.432-2.909-4.394-4.752-7.64-4.752
			c-3.246,0-6.209,1.843-7.64,4.752l-8.039,16.283l-17.968,2.609c-3.212,0.466-5.876,2.717-6.883,5.801
			c-0.999,3.088-0.166,6.475,2.155,8.739l13.008,12.671l-3.071,17.897c-0.549,3.196,0.766,6.429,3.387,8.335
			c1.49,1.078,3.246,1.627,5.01,1.627c1.357,0,2.721-0.324,3.97-0.978l16.071-8.451l16.062,8.451c2.871,1.507,6.35,1.261,8.98-0.649
			c2.621-1.906,3.936-5.139,3.387-8.335l-3.071-17.897l13.008-12.671C296.089,231.792,296.921,228.405,295.923,225.317z
			 M265.654,237.647c-2.006,1.96-2.921,4.781-2.447,7.544l0.907,5.289l-4.744-2.497c-2.497-1.307-5.443-1.307-7.939,0l-4.752,2.501
			l0.907-5.293c0.474-2.763-0.441-5.584-2.447-7.544l-3.845-3.745l5.31-0.77c2.78-0.404,5.177-2.147,6.417-4.665l2.38-4.81
			l2.372,4.81c1.24,2.518,3.637,4.261,6.417,4.665l5.31,0.77L265.654,237.647z"/>
	</g>
</g>
<g>
	<g>
		<path d="M245.206,302.017c-1.007-3.084-3.67-5.335-6.883-5.801l-17.968-2.609l-8.039-16.283c-2.863-5.817-12.417-5.817-15.28,0
			l-8.039,16.283l-17.96,2.609c-3.212,0.466-5.876,2.717-6.883,5.801c-0.999,3.083-0.166,6.471,2.155,8.734l13,12.675l-3.063,17.897
			c-0.549,3.2,0.766,6.429,3.387,8.335c2.638,1.91,6.117,2.156,8.98,0.649l16.062-8.451l16.07,8.451
			c1.248,0.653,2.613,0.978,3.97,0.978c1.764,0,3.529-0.549,5.01-1.627c2.621-1.906,3.936-5.139,3.387-8.335l-3.071-17.897
			l13.008-12.671C245.372,308.492,246.204,305.104,245.206,302.017z M214.937,314.346c-2.006,1.96-2.921,4.781-2.447,7.544
			l0.907,5.293l-4.752-2.501c-2.497-1.307-5.443-1.307-7.939,0l-4.752,2.501l0.907-5.293c0.474-2.763-0.441-5.584-2.447-7.54
			l-3.845-3.749l5.31-0.77c2.78-0.404,5.176-2.147,6.417-4.665l2.38-4.819l2.38,4.819c1.24,2.518,3.637,4.261,6.417,4.665l5.31,0.77
			L214.937,314.346z"/>
	</g>
</g>
<g>
	<g>
		<path d="M355.578,302.017c-1.007-3.084-3.67-5.335-6.883-5.801l-17.968-2.609l-8.031-16.283c-1.432-2.909-4.394-4.752-7.64-4.752
			c-3.246,0-6.209,1.843-7.64,4.752l-8.039,16.283l-17.968,2.609c-3.212,0.466-5.876,2.717-6.883,5.801
			c-0.999,3.088-0.166,6.475,2.155,8.739l13.008,12.671l-3.071,17.897c-0.549,3.196,0.766,6.429,3.387,8.335
			c1.49,1.078,3.246,1.627,5.01,1.627c1.357,0,2.721-0.324,3.97-0.978l16.071-8.451l16.062,8.451c2.88,1.506,6.35,1.261,8.98-0.649
			c2.621-1.906,3.936-5.139,3.387-8.335l-3.071-17.897l13.008-12.671C355.744,308.492,356.577,305.104,355.578,302.017z
			 M325.309,314.346c-2.006,1.96-2.921,4.781-2.447,7.544l0.907,5.289l-4.744-2.497c-2.497-1.307-5.443-1.307-7.939,0l-4.752,2.501
			l0.907-5.293c0.474-2.763-0.441-5.584-2.447-7.544l-3.845-3.745l5.31-0.77c2.78-0.404,5.177-2.147,6.417-4.665l2.38-4.81
			l2.372,4.81c1.24,2.518,3.637,4.261,6.417,4.665l5.31,0.77L325.309,314.346z"/>
	</g>
</g>
<g>
	<g>
		<path d="M253.728,59.518c-18.8,0-34.089,15.292-34.089,34.089s15.288,34.089,34.089,34.089c18.8,0,34.089-15.292,34.089-34.089
			S272.528,59.518,253.728,59.518z M253.728,110.651c-9.396,0-17.044-7.644-17.044-17.044s7.648-17.044,17.044-17.044
			c9.396,0,17.044,7.644,17.044,17.044S263.124,110.651,253.728,110.651z"/>
	</g>
</g>
<g>
</g>
<g>
</g>
<g>
</g>
<g>
</g>
<g>
</g>
<g>
</g>
<g>
</g>
<g>
</g>
<g>
</g>
<g>
</g>
<g>
</g>
<g>
</g>
<g>
</g>
<g>
</g>
<g>
</g>
</svg>
