<?xml version="1.0" encoding="iso-8859-1"?>
<!-- Generator: Adobe Illustrator 19.0.0, SVG Export Plug-In . SVG Version: 6.00 Build 0)  -->
<svg version="1.1" id="Layer_1" xmlns="http://www.w3.org/2000/svg" xmlns:xlink="http://www.w3.org/1999/xlink" x="0px" y="0px"
	 viewBox="0 0 512 512" style="enable-background:new 0 0 512 512;" xml:space="preserve">
<g>
	<g>
		<path d="M384.363,6.42c-0.063-0.266-0.087-0.523-0.176-0.784c-0.095-0.275-0.155-0.548-0.276-0.811
			c-0.104-0.224-0.214-0.438-0.339-0.654c-0.159-0.279-0.315-0.55-0.504-0.807c-0.056-0.077-0.086-0.162-0.146-0.236
			c-0.096-0.123-0.213-0.214-0.315-0.33c-0.204-0.233-0.412-0.458-0.642-0.668c-0.2-0.185-0.408-0.352-0.622-0.515
			c-0.22-0.166-0.442-0.323-0.677-0.468c-0.244-0.15-0.493-0.282-0.748-0.405c-0.237-0.116-0.475-0.221-0.724-0.313
			c-0.277-0.103-0.556-0.188-0.842-0.262c-0.244-0.063-0.488-0.12-0.741-0.162c-0.318-0.053-0.635,0.325-0.956,0.307
			c-0.148-0.007-0.289,0.36-0.439,0.36H137.219c-0.171,0-0.33-0.364-0.499-0.354c-0.287,0.018-0.57-0.161-0.854-0.116
			c-0.283,0.046-0.557,0.007-0.831,0.08c-0.255,0.068-0.506,0.093-0.755,0.183c-0.274,0.101-0.537,0.192-0.797,0.319
			c-0.234,0.115-0.462,0.224-0.686,0.361c-0.252,0.154-0.491,0.315-0.725,0.494c-0.202,0.154-0.399,0.309-0.59,0.484
			c-0.234,0.215-0.448,0.443-0.658,0.681c-0.1,0.115-0.217,0.203-0.313,0.324c-0.058,0.075-0.094,0.159-0.15,0.235
			c-0.189,0.257-0.352,0.528-0.513,0.807c-0.125,0.218-0.251,0.431-0.355,0.656c-0.122,0.261-0.216,0.534-0.309,0.81
			c-0.09,0.26-0.18,0.518-0.244,0.784c-0.06,0.255-0.096,0.518-0.133,0.781c-0.042,0.301-0.614,0.6-0.625,0.902
			c-0.003,0.101-0.563,0.195-0.563,0.296v358.495c0,2.067,1.284,4.064,2.646,5.622l119.765,136.569
			c1.621,1.85,4.093,2.913,6.556,2.913c2.463,0,4.868-1.063,6.489-2.913l118.998-136.569c1.363-1.559,1.613-3.555,1.613-5.622V8.4
			c0-0.101,0.507-0.195,0.504-0.296c-0.01-0.303,0.218-0.602,0.175-0.903C384.326,6.937,384.425,6.676,384.363,6.42z
			 M351.539,17.744l-94.822,74.499l-94.821-74.499H351.539z M366.613,363.686L255.65,490.503L144.687,363.686v-81.659
			l106.224,83.043c1.546,1.217,3.676,1.826,5.539,1.826s3.326-0.609,4.872-1.826l105.29-83.043V363.686z M366.613,260.322
			l-110.963,87.18l-110.963-87.18v-29.509l106.224,83.043c1.546,1.217,3.676,1.826,5.539,1.826s3.326-0.609,4.872-1.826
			l105.29-83.043V260.322z M366.613,209.108l-110.963,87.18l-110.963-87.18V179.6l106.224,83.043
			c1.546,1.217,3.676,1.826,5.539,1.826s3.326-0.609,4.872-1.826l105.29-83.043V209.108z M366.613,157.895l-110.963,87.18
			l-110.963-87.18v-29.509l106.224,83.043c1.546,1.217,3.676,1.826,5.539,1.826s3.326-0.609,4.872-1.826l105.29-83.043V157.895z
			 M366.613,106.681l-110.963,87.18l-110.963-87.18V77.172l106.224,83.043c1.546,1.217,3.676,1.826,5.539,1.826
			s3.326-0.609,4.872-1.826l105.29-83.043V106.681z M366.613,55.468l-110.963,87.18l-110.963-87.18V25.959l106.224,83.043
			c1.546,1.217,3.676,1.826,5.539,1.826s3.326-0.609,4.872-1.826l105.29-83.043V55.468z"/>
	</g>
</g>
<g>
	<g>
		<path d="M256.717,375.431c-18.826,0-34.142,15.316-34.142,34.142c0,18.826,15.316,34.142,34.142,34.142
			s34.142-15.316,34.142-34.142C290.859,390.747,275.543,375.431,256.717,375.431z M256.717,426.644
			c-9.415,0-17.071-7.656-17.071-17.071c0-9.415,7.656-17.071,17.071-17.071s17.071,7.656,17.071,17.071
			C273.788,418.988,266.132,426.644,256.717,426.644z"/>
	</g>
</g>
<g>
</g>
<g>
</g>
<g>
</g>
<g>
</g>
<g>
</g>
<g>
</g>
<g>
</g>
<g>
</g>
<g>
</g>
<g>
</g>
<g>
</g>
<g>
</g>
<g>
</g>
<g>
</g>
<g>
</g>
</svg>
