<?xml version="1.0" encoding="iso-8859-1"?>
<!-- Generator: Adobe Illustrator 19.0.0, SVG Export Plug-In . SVG Version: 6.00 Build 0)  -->
<svg version="1.1" id="Layer_1" xmlns="http://www.w3.org/2000/svg" xmlns:xlink="http://www.w3.org/1999/xlink" x="0px" y="0px"
	 viewBox="0 0 512 512" style="enable-background:new 0 0 512 512;" xml:space="preserve">
<g>
	<g>
		<path d="M473.141,165.112c-0.425-0.198-42.678-19.82-104.53-61.989C307.4,61.389,265.254,4.512,264.835,3.946
			c-1.736-2.359-4.368-3.802-7.292-3.924c-2.953-0.207-5.703,1.075-7.632,3.274c-0.627,0.717-63.074,71.63-104.427,99.828
			c-41.909,28.575-105.304,61.904-105.931,62.234c-3.165,1.67-5.736,4.962-5.736,8.538v77.281c0,3.49,2.486,6.707,5.528,8.415
			c1.471,0.83,3.405,1.245,5.038,1.245c1.74,0,3.627-0.472,5.165-1.406c0.589-0.359,59.635-36.244,116.662-77.725
			c44.032-32.018,77.229-65.659,91.134-80.574c15.278,15.773,52.372,52.659,90.762,80.574
			c48.617,35.358,115.837,77.253,116.511,77.668c2.981,1.859,6.137,1.953,9.193,0.245c3.07-1.698,4.372-4.934,4.372-8.443v-77.281
			C478.183,170.112,476.579,166.678,473.141,165.112z M458.863,233.658c-21.735-14.302-65.654-42.612-99.979-67.574
			c-47.537-34.575-94.427-85.196-94.899-85.705c-1.863-2.009-4.042-2.745-7.094-3.085c-2.74,0.047-5.259,1.255-7.056,3.33
			c-0.387,0.443-39.726,44.857-95.554,85.46c-39.344,28.612-79.409,54.546-101.144,67.725v-54.131
			c16.905-8.651,66.437-35.905,102.648-60.593c34.9-23.792,82.215-74.074,100.615-94.366c14.952,18.452,51.324,60.583,100.87,94.366
			c50.871,34.688,89.517,54.15,101.592,60.895V233.658z"/>
	</g>
</g>
<g>
	<g>
		<path d="M473.141,300.354c-0.425-0.198-42.678-19.82-104.53-61.989c-61.211-41.734-103.356-98.61-103.776-99.177
			c-1.736-2.359-4.368-3.802-7.292-3.924c-2.953-0.17-5.703,1.075-7.632,3.274c-0.627,0.717-63.074,71.63-104.427,99.828
			C103.575,266.94,40.18,300.269,39.553,300.599c-3.165,1.67-5.736,4.962-5.736,8.538v77.262l0.495,48.301
			c-0.009,3.311,1.981,6.396,4.778,8.17C43.524,445.69,149.144,512,257,512c107.861,0,212.801-66.31,217.235-69.13
			c2.788-1.774,3.948-4.849,3.948-8.151v-48.301v-77.281C478.183,305.354,476.579,301.92,473.141,300.354z M458.863,429.285
			c-19.32,12.443-112.059,63.395-202.316,63.395c-90.106,0-181.529-50.942-202.599-63.395l0.208-25.99
			c33.287,18.66,116.808,60.404,202.372,60.404c85.531,0,170.939-41.716,202.335-60.376V429.285z M63.408,386.166
			c20.83-13.077,62.333-39.728,102.877-69.218c44.032-32.018,77.192-65.659,91.097-80.574
			c15.278,15.773,52.352,52.659,90.743,80.574c35.466,25.792,80.797,55.046,103.005,69.156
			c-31.407,17.509-113.207,58.275-193.922,58.275C176.705,444.379,94.933,403.708,63.408,386.166z M458.863,368.9
			c-21.735-14.302-65.654-42.612-99.979-67.574c-47.537-34.575-94.427-85.196-94.899-85.705c-1.863-2-4.042-3.189-7.094-3.085
			c-2.74,0.047-5.259,1.255-7.056,3.33c-0.387,0.443-39.726,44.857-95.554,85.46c-39.344,28.613-79.409,54.546-101.144,67.725
			V314.92c16.905-8.651,66.437-35.905,102.648-60.593c34.9-23.792,82.215-74.074,100.615-94.366
			c14.952,18.452,51.324,60.583,100.87,94.366c50.871,34.688,89.517,54.15,101.592,60.895V368.9z"/>
	</g>
</g>
<g>
	<g>
		<path d="M330.706,333.552c-1.137-3.49-4.16-6.038-7.802-6.566l-39.409-5.726l-17.622-35.716c-3.255-6.604-14.075-6.604-17.33,0
			l-17.622,35.716l-39.409,5.726c-3.641,0.528-6.665,3.076-7.802,6.566c-1.137,3.5-0.189,7.339,2.443,9.905l28.523,27.801
			l-6.736,39.254c-0.618,3.623,0.873,7.283,3.844,9.443c2.981,2.179,6.929,2.453,10.174,0.736l35.249-18.528l35.249,18.528
			c1.415,0.745,2.957,1.113,4.495,1.113c2,0,3.995-0.623,5.679-1.849c2.972-2.16,4.462-5.82,3.844-9.443l-6.736-39.254
			l28.523-27.801C330.894,340.891,331.843,337.051,330.706,333.552z M282.617,360.975c-2.273,2.217-3.311,5.415-2.778,8.547
			l4.283,24.962l-22.419-11.783c-1.406-0.745-2.953-1.113-4.495-1.113s-3.09,0.368-4.495,1.113l-22.419,11.783l4.283-24.962
			c0.533-3.132-0.505-6.33-2.778-8.547l-18.141-17.688l25.065-3.641c3.146-0.453,5.868-2.434,7.278-5.283l11.207-22.716
			l11.207,22.716c1.41,2.849,4.132,4.83,7.278,5.283l25.065,3.641L282.617,360.975z"/>
	</g>
</g>
<g>
</g>
<g>
</g>
<g>
</g>
<g>
</g>
<g>
</g>
<g>
</g>
<g>
</g>
<g>
</g>
<g>
</g>
<g>
</g>
<g>
</g>
<g>
</g>
<g>
</g>
<g>
</g>
<g>
</g>
</svg>
