<?xml version="1.0" encoding="iso-8859-1"?>
<!-- Generator: Adobe Illustrator 19.0.0, SVG Export Plug-In . SVG Version: 6.00 Build 0)  -->
<svg version="1.1" id="Layer_1" xmlns="http://www.w3.org/2000/svg" xmlns:xlink="http://www.w3.org/1999/xlink" x="0px" y="0px"
	 viewBox="0 0 512 512" style="enable-background:new 0 0 512 512;" xml:space="preserve">
<g>
	<g>
		<path d="M177.533,155.557c-1.008-3.083-3.675-5.333-6.892-5.8l-12.383-1.8l-5.542-11.225c-2.867-5.833-12.433-5.833-15.3,0
			l-5.542,11.225l-12.383,1.8c-3.217,0.467-5.883,2.717-6.892,5.8c-1,3.092-0.167,6.483,2.158,8.75l8.967,8.742l-2.117,12.333
			c-0.55,3.2,0.767,6.433,3.392,8.342c2.641,1.925,6.125,2.167,8.992,0.65l11.075-5.825l11.075,5.825
			c1.25,0.658,2.617,0.983,3.975,0.983c1.767,0,3.525-0.55,5.017-1.633c2.625-1.908,3.942-5.142,3.392-8.342l-2.117-12.333
			l8.967-8.742C177.7,162.041,178.533,158.649,177.533,155.557z M148.792,171.224c-1.175-0.567-2.45-0.85-3.725-0.85
			s-2.55,0.283-3.725,0.85c0.358-2.583-0.483-5.183-2.292-7.067c2.567-0.458,4.783-2.075,6.017-4.375
			c1.233,2.3,3.45,3.917,6.017,4.375C149.275,166.041,148.433,168.641,148.792,171.224z"/>
	</g>
</g>
<g>
	<g>
		<path d="M288.467,121.424c-1.008-3.083-3.675-5.333-6.892-5.8l-12.383-1.8l-5.542-11.225c-2.867-5.833-12.433-5.833-15.3,0
			l-5.542,11.225l-12.383,1.8c-3.217,0.467-5.883,2.717-6.892,5.8c-1,3.092-0.167,6.483,2.158,8.75l8.967,8.742l-2.117,12.333
			c-0.55,3.2,0.767,6.433,3.392,8.342c2.641,1.917,6.116,2.167,8.992,0.65L256,154.416l11.075,5.825
			c1.25,0.658,2.617,0.983,3.975,0.983c1.767,0,3.525-0.55,5.017-1.633c2.625-1.908,3.942-5.142,3.392-8.342l-2.117-12.333
			l8.967-8.742C288.633,127.907,289.467,124.516,288.467,121.424z M259.725,137.091c-1.175-0.567-2.45-0.85-3.725-0.85
			s-2.55,0.283-3.725,0.85c0.358-2.583-0.483-5.183-2.292-7.067c2.567-0.458,4.783-2.075,6.017-4.375
			c1.233,2.3,3.45,3.917,6.017,4.375C260.208,131.907,259.367,134.507,259.725,137.091z"/>
	</g>
</g>
<g>
	<g>
		<path d="M390.867,155.557c-1.008-3.083-3.675-5.333-6.892-5.8l-12.383-1.8l-5.542-11.225c-2.867-5.833-12.433-5.833-15.3,0
			l-5.542,11.225l-12.383,1.8c-3.217,0.467-5.883,2.717-6.891,5.8c-1,3.092-0.167,6.483,2.158,8.75l8.967,8.742l-2.117,12.333
			c-0.55,3.2,0.767,6.433,3.392,8.342c2.642,1.925,6.125,2.167,8.992,0.65l11.075-5.825l11.075,5.825
			c1.25,0.658,2.617,0.983,3.975,0.983c1.767,0,3.525-0.55,5.017-1.633c2.625-1.908,3.942-5.142,3.392-8.342l-2.117-12.333
			l8.967-8.742C391.033,162.041,391.867,158.649,390.867,155.557z M362.125,171.224c-1.175-0.567-2.45-0.85-3.725-0.85
			s-2.55,0.283-3.725,0.85c0.358-2.583-0.483-5.183-2.292-7.067c2.567-0.458,4.783-2.075,6.017-4.375
			c1.233,2.3,3.45,3.917,6.017,4.375C362.608,166.041,361.767,168.641,362.125,171.224z"/>
	</g>
</g>
<g>
	<g>
		<path d="M318,281.541c-1.008-3.083-3.675-5.333-6.892-5.8l-34.808-5.058l-15.575-31.55c-2.867-5.833-12.433-5.833-15.3,0
			l-15.575,31.55l-34.808,5.058c-3.217,0.467-5.883,2.717-6.892,5.808c-1,3.083-0.167,6.475,2.158,8.742l25.2,24.559l-5.95,34.675
			c-0.55,3.2,0.767,6.433,3.392,8.342c1.483,1.083,3.25,1.633,5.017,1.633c1.358,0,2.725-0.325,3.975-0.983l31.133-16.367
			l31.133,16.367c2.875,1.517,6.358,1.267,8.992-0.65c2.625-1.908,3.942-5.142,3.392-8.342l-5.942-34.675l25.192-24.559
			C318.167,288.024,319,284.632,318,281.541z M275.525,305.766c-2.008,1.958-2.925,4.783-2.45,7.55l3.775,22.05l-19.8-10.408
			c-1.25-0.658-2.608-0.983-3.975-0.983c-1.367,0-2.725,0.325-3.975,0.983l-19.8,10.408l3.783-22.05
			c0.475-2.767-0.442-5.592-2.45-7.55l-16.025-15.625l22.133-3.217c2.783-0.4,5.183-2.15,6.425-4.667l9.908-20.067l9.908,20.067
			c1.242,2.517,3.642,4.267,6.425,4.667l22.142,3.217L275.525,305.766z"/>
	</g>
</g>
<g>
	<g>
		<path d="M510.025,297.174l-42.667-50.796c-1.625-1.942-4.025-2.662-6.558-2.662H349.867c-0.15,0-0.288-0.369-0.435-0.36
			c-19.735-30.783-54.229-51.446-93.431-51.446s-73.694,20.762-93.431,51.548c-0.146-0.008-0.285,0.258-0.435,0.258H51.2
			c-2.533,0-4.933,0.721-6.558,2.662L1.975,297.376c-2.633,3.167-2.633,7.665,0,10.833l42.667,51.552
			c1.625,1.942,4.025,3.421,6.558,3.421h110.933c0.15,0,0.289-0.442,0.435-0.448c19.738,30.783,54.229,51.042,93.431,51.042
			s73.696-20.156,93.431-50.942c0.148,0.008,0.285,0.348,0.435,0.348H460.8c2.533,0,4.933-1.529,6.558-3.471l42.667-51.402
			C512.658,305.143,512.658,300.341,510.025,297.174z M55.2,346.116l-28.446-34.133h118.673c0.919,10.667,3.733,23.467,8.186,34.133
			H55.2z M145.427,294.916H26.754L55.2,260.782h98.413C149.16,271.449,146.346,282.116,145.427,294.916z M256,396.507
			c-51.758,0-93.867-42.108-93.867-93.867s42.108-93.867,93.867-93.867s93.867,42.108,93.867,93.867S307.758,396.507,256,396.507z
			 M456.8,346.116h-98.413c4.452-10.667,7.267-23.467,8.186-34.133h118.673L456.8,346.116z M366.573,294.916
			c-0.919-12.8-3.733-23.467-8.186-34.133H456.8l28.446,34.133H366.573z"/>
	</g>
</g>
<g>
	<g>
		<path d="M65.792,270.974c-0.425-0.342-0.858-0.683-1.283-1.025c-0.508-0.342-1.025-0.6-1.533-0.767
			c-0.517-0.258-1.025-0.433-1.625-0.517c-1.617-0.342-3.325-0.167-4.858,0.517c-1.109,0.425-2.05,1.017-2.817,1.792
			c-1.542,1.617-2.475,3.833-2.475,6.058c0,2.3,0.85,4.433,2.475,6.058c0.85,0.767,1.792,1.367,2.817,1.792
			c1.025,0.425,2.133,0.683,3.242,0.683c2.3,0,4.433-0.858,6.058-2.475c1.617-1.625,2.475-3.758,2.475-6.058
			C68.267,274.807,67.325,272.591,65.792,270.974z"/>
	</g>
</g>
<g>
	<g>
		<path d="M99.925,270.974c-3.158-3.158-8.958-3.158-12.117,0c-1.542,1.617-2.475,3.833-2.475,6.058c0,2.3,0.85,4.433,2.475,6.058
			c0.85,0.767,1.792,1.367,2.817,1.792c1.025,0.425,2.133,0.683,3.242,0.683c2.3,0,4.433-0.858,6.058-2.475
			c1.617-1.625,2.475-3.758,2.475-6.058C102.4,274.807,101.458,272.591,99.925,270.974z"/>
	</g>
</g>
<g>
	<g>
		<path d="M134.058,270.974c-0.425-0.342-0.858-0.683-1.283-1.025c-0.508-0.342-1.025-0.6-1.533-0.767
			c-0.517-0.258-1.025-0.433-1.625-0.517c-1.617-0.342-3.325-0.167-4.858,0.517c-1.109,0.425-2.05,1.017-2.817,1.792
			c-1.542,1.617-2.475,3.833-2.475,6.058c0,2.3,0.85,4.433,2.475,6.058c1.617,1.617,3.75,2.475,6.058,2.475
			c2.3,0,4.433-0.858,6.058-2.475c1.617-1.625,2.475-3.758,2.475-6.058C136.533,274.807,135.592,272.591,134.058,270.974z"/>
	</g>
</g>
<g>
	<g>
		<path d="M67.583,324.991c-0.425-1.025-1.025-1.967-1.792-2.817c-3.158-3.158-8.958-3.158-12.116,0
			c-0.767,0.85-1.367,1.792-1.792,2.817c-0.425,1.017-0.683,2.133-0.683,3.242c0,2.3,0.85,4.433,2.475,6.058
			c1.617,1.617,3.75,2.475,6.058,2.475c2.3,0,4.433-0.858,6.058-2.475c1.617-1.625,2.475-3.758,2.475-6.058
			C68.267,327.124,68.008,326.007,67.583,324.991z"/>
	</g>
</g>
<g>
	<g>
		<path d="M99.925,322.174c-0.858-0.775-1.792-1.367-2.817-1.792c-2.05-0.858-4.442-0.858-6.483,0
			c-1.108,0.425-1.967,1.017-2.817,1.792c-0.767,0.85-1.367,1.792-1.792,2.817c-0.425,1.017-0.683,2.133-0.683,3.242
			c0,1.108,0.258,2.217,0.683,3.242c0.425,1.025,1.025,1.958,1.792,2.817c1.617,1.617,3.75,2.475,6.058,2.475
			c2.3,0,4.433-0.858,6.058-2.475c1.617-1.625,2.475-3.758,2.475-6.058C102.4,326.007,101.458,323.791,99.925,322.174z"/>
	</g>
</g>
<g>
	<g>
		<path d="M135.85,324.991c-0.425-1.025-1.025-1.967-1.792-2.817c-0.858-0.775-1.792-1.367-2.817-1.792
			c-2.05-0.858-4.442-0.858-6.483,0c-1.109,0.425-1.967,1.017-2.817,1.792c-0.767,0.85-1.367,1.792-1.792,2.817
			c-0.425,1.017-0.683,2.133-0.683,3.242c0,1.108,0.258,2.217,0.683,3.242c0.425,1.025,1.025,1.958,1.792,2.817
			c1.617,1.617,3.75,2.475,6.058,2.475c2.3,0,4.433-0.858,6.058-2.475c0.767-0.858,1.367-1.792,1.792-2.817
			c0.425-1.025,0.683-2.133,0.683-3.242C136.533,327.124,136.275,326.007,135.85,324.991z"/>
	</g>
</g>
<g>
	<g>
		<path d="M391.85,273.791c-0.425-1.117-1.025-1.967-1.792-2.817c-3.158-3.158-8.958-3.158-12.116,0
			c-1.542,1.617-2.475,3.833-2.475,6.058c0,2.3,0.85,4.433,2.475,6.058c1.617,1.617,3.75,2.475,6.058,2.475
			c1.108,0,2.217-0.258,3.242-0.683c1.025-0.425,1.958-1.025,2.817-1.792c1.533-1.625,2.475-3.758,2.475-6.058
			C392.533,275.924,392.275,274.807,391.85,273.791z"/>
	</g>
</g>
<g>
	<g>
		<path d="M424.192,270.974c-3.158-3.158-8.958-3.158-12.116,0c-1.542,1.617-2.475,3.833-2.475,6.058c0,2.3,0.85,4.433,2.475,6.058
			c0.85,0.767,1.792,1.367,2.817,1.792c1.025,0.425,2.133,0.683,3.242,0.683c2.3,0,4.433-0.858,6.058-2.475
			c1.617-1.625,2.475-3.758,2.475-6.058C426.667,274.807,425.725,272.591,424.192,270.974z"/>
	</g>
</g>
<g>
	<g>
		<path d="M460.117,273.791c-0.425-1.117-1.025-1.967-1.792-2.817c-3.158-3.158-8.958-3.158-12.117,0
			c-1.542,1.617-2.475,3.833-2.475,6.058c0,2.3,0.85,4.433,2.475,6.058c1.617,1.617,3.75,2.475,6.058,2.475
			c1.108,0,2.217-0.258,3.242-0.683c1.025-0.425,1.958-1.025,2.817-1.792c1.533-1.625,2.475-3.758,2.475-6.058
			C460.8,275.924,460.542,274.807,460.117,273.791z"/>
	</g>
</g>
<g>
	<g>
		<path d="M390.058,322.174c-0.425-0.342-0.858-0.683-1.367-1.025c-0.425-0.342-0.942-0.6-1.45-0.767
			c-0.517-0.258-1.025-0.433-1.625-0.517c-1.617-0.342-3.325-0.167-4.858,0.517c-1.109,0.425-2.05,1.017-2.817,1.792
			c-0.767,0.85-1.367,1.792-1.792,2.817c-0.517,1.017-0.683,2.133-0.683,3.242c0,2.3,0.85,4.433,2.475,6.058
			c1.617,1.617,3.75,2.475,6.058,2.475c1.108,0,2.217-0.175,3.242-0.6c1.025-0.508,1.958-1.108,2.817-1.875
			c1.617-1.625,2.475-3.758,2.475-6.058C392.533,326.007,391.592,323.791,390.058,322.174z"/>
	</g>
</g>
<g>
	<g>
		<path d="M425.983,324.991c-0.425-1.025-1.025-1.967-1.792-2.817c-0.425-0.342-0.858-0.683-1.367-1.025
			c-0.425-0.342-0.942-0.6-1.45-0.767c-0.517-0.258-1.025-0.433-1.625-0.517c-2.725-0.6-5.717,0.342-7.675,2.308
			c-0.767,0.85-1.367,1.792-1.792,2.817c-0.517,1.017-0.683,2.133-0.683,3.242c0,2.3,0.85,4.433,2.475,6.058
			c1.617,1.617,3.75,2.475,6.058,2.475c1.108,0,2.217-0.175,3.242-0.6c1.025-0.508,1.958-1.108,2.817-1.875
			c0.767-0.858,1.367-1.792,1.792-2.817c0.508-1.025,0.683-2.133,0.683-3.242C426.667,327.124,426.492,326.007,425.983,324.991z"/>
	</g>
</g>
<g>
	<g>
		<path d="M460.117,324.991c-0.425-1.025-1.025-1.967-1.792-2.817c-3.158-3.158-8.958-3.158-12.117,0
			c-0.767,0.85-1.367,1.792-1.792,2.817c-0.425,1.017-0.683,2.133-0.683,3.242c0,1.108,0.258,2.217,0.683,3.242
			c0.425,1.025,1.025,1.958,1.792,2.817c1.617,1.617,3.75,2.475,6.058,2.475c2.3,0,4.433-0.858,6.058-2.475
			c0.767-0.858,1.367-1.792,1.792-2.817c0.425-1.025,0.683-2.133,0.683-3.242C460.8,327.124,460.542,326.007,460.117,324.991z"/>
	</g>
</g>
<g>
</g>
<g>
</g>
<g>
</g>
<g>
</g>
<g>
</g>
<g>
</g>
<g>
</g>
<g>
</g>
<g>
</g>
<g>
</g>
<g>
</g>
<g>
</g>
<g>
</g>
<g>
</g>
<g>
</g>
</svg>
